<svg xmlns="http://www.w3.org/2000/svg" version="1.1" xmlns:xlink="http://www.w3.org/1999/xlink" xmlns:svgjs="http://svgjs.dev/svgjs" width="1500" height="935" viewBox="0 0 1500 935"><g transform="matrix(1,0,0,1,-0.9090909090909918,0.3785425101214628)"><svg viewBox="0 0 396 247" data-background-color="#ffffff" preserveAspectRatio="xMidYMid meet" height="935" width="1500" xmlns="http://www.w3.org/2000/svg" xmlns:xlink="http://www.w3.org/1999/xlink"><g id="tight-bounds" transform="matrix(1,0,0,1,0.2400000000000091,-0.09999999999999432)"><svg viewBox="0 0 395.52 247.2" height="247.2" width="395.52"><g><svg></svg></g><g><svg viewBox="0 0 395.52 247.2" height="247.2" width="395.52"><g transform="matrix(1,0,0,1,75.54432,106.6389431555306)"><svg viewBox="0 0 244.43135999999998 33.92211368893879" height="33.92211368893879" width="244.43135999999998"><g><svg viewBox="0 0 244.43135999999998 33.92211368893879" height="33.92211368893879" width="244.43135999999998"><g><svg viewBox="0 0 244.43135999999998 33.92211368893879" height="33.92211368893879" width="244.43135999999998"><g><svg viewBox="0 0 244.43135999999998 33.92211368893879" height="33.92211368893879" width="244.43135999999998"><g id="textblocktransform"><svg viewBox="0 0 244.43135999999998 33.92211368893879" height="33.92211368893879" width="244.43135999999998" id="textblock"><g><svg viewBox="0 0 244.43135999999998 33.92211368893879" height="33.92211368893879" width="244.43135999999998"><g transform="matrix(1,0,0,1,0,0)"><svg width="244.43135999999998" viewBox="2.86 -35.45 260.87 36.21" height="33.92211368893879" data-palette-color="#2a2c35"><path d="M9.84-13.99L23.85-13.99 23.85-21Q23.85-22.44 23.3-23.72 22.75-25 21.8-25.95 20.85-26.9 19.57-27.45 18.29-28 16.85-28L16.85-28Q15.41-28 14.12-27.45 12.84-26.9 11.89-25.95 10.94-25 10.39-23.72 9.84-22.44 9.84-21L9.84-21 9.84-13.99ZM30.86-21L30.86 0 23.85 0 23.85-7.01 9.84-7.01 9.84 0 2.86 0 2.86-21Q2.86-23.9 3.96-26.45 5.05-29 6.95-30.91 8.84-32.81 11.39-33.91 13.94-35.01 16.85-35.01L16.85-35.01Q19.75-35.01 22.3-33.91 24.85-32.81 26.76-30.91 28.66-29 29.76-26.45 30.86-23.9 30.86-21L30.86-21ZM64.3-35.01L64.3-13.99Q64.3-11.08 63.21-8.53 62.11-5.98 60.2-4.09 58.3-2.2 55.75-1.1 53.2 0 50.29 0L50.29 0Q47.39 0 44.83-1.1 42.28-2.2 40.39-4.09 38.5-5.98 37.4-8.53 36.3-11.08 36.3-13.99L36.3-13.99 36.3-35.01 43.28-35.01 43.28-13.99Q43.28-12.55 43.83-11.28 44.38-10.01 45.33-9.06 46.29-8.11 47.57-7.56 48.85-7.01 50.29-7.01L50.29-7.01Q51.73-7.01 53.01-7.56 54.29-8.11 55.25-9.06 56.2-10.01 56.75-11.28 57.3-12.55 57.3-13.99L57.3-13.99 57.3-35.01 64.3-35.01ZM85.08-28L85.08 0 78.1 0 78.1-28 67.57-28 67.57-35.01 95.58-35.01 95.58-28 85.08-28ZM132.49-17.36L132.49-17.36Q132.49-14.87 131.84-12.56 131.19-10.25 130.02-8.24 128.85-6.23 127.19-4.57 125.53-2.91 123.53-1.72 121.53-0.54 119.21 0.11 116.89 0.76 114.4 0.76L114.4 0.76Q111.91 0.76 109.6 0.11 107.29-0.54 105.28-1.72 103.26-2.91 101.6-4.57 99.94-6.23 98.76-8.24 97.58-10.25 96.93-12.56 96.28-14.87 96.28-17.36L96.28-17.36Q96.28-19.85 96.93-22.17 97.58-24.49 98.76-26.49 99.94-28.49 101.6-30.15 103.26-31.81 105.28-32.98 107.29-34.16 109.6-34.8 111.91-35.45 114.4-35.45L114.4-35.45Q116.89-35.45 119.21-34.8 121.53-34.16 123.53-32.98 125.53-31.81 127.19-30.15 128.85-28.49 130.02-26.49 131.19-24.49 131.84-22.17 132.49-19.85 132.49-17.36ZM125.53-17.36L125.53-17.36Q125.53-19.65 124.65-21.69 123.77-23.73 122.27-25.23 120.77-26.73 118.73-27.61 116.69-28.49 114.4-28.49L114.4-28.49Q112.08-28.49 110.05-27.61 108.02-26.73 106.51-25.23 105-23.73 104.12-21.69 103.24-19.65 103.24-17.36L103.24-17.36Q103.24-15.06 104.12-13.05 105-11.04 106.51-9.52 108.02-8.01 110.05-7.13 112.08-6.25 114.4-6.25L114.4-6.25Q116.69-6.25 118.73-7.13 120.77-8.01 122.27-9.52 123.77-11.04 124.65-13.05 125.53-15.06 125.53-17.36ZM144.08-13.99L144.08 0 137.07 0 137.07-35.01 161.59-35.01 161.59-28 144.08-28 144.08-21 154.58-21 154.58-13.99 144.08-13.99ZM172.18-35.01L172.18 0 165.17 0 165.17-35.01 172.18-35.01ZM203.18-7.01L203.18 0 178.67 0 178.67-35.01 185.68-35.01 185.68-7.01 203.18-7.01ZM230.82-7.01L230.82 0 206.82 0 206.82-35.01 230.82-35.01 230.82-28 213.83-28 213.83-21 225.32-21 225.32-13.99 213.83-13.99 213.83-7.01 230.82-7.01ZM249.74-28L242.73-28 242.73-13.99 249.74-13.99Q251.18-13.99 252.45-14.54 253.72-15.09 254.67-16.04 255.62-16.99 256.17-18.27 256.72-19.56 256.72-21L256.72-21Q256.72-22.44 256.17-23.72 255.62-25 254.67-25.95 253.72-26.9 252.45-27.45 251.18-28 249.74-28L249.74-28ZM242.73-7.01L242.73 0 235.72 0 235.72-35.01 249.74-35.01Q251.66-35.01 253.45-34.51 255.23-34.01 256.78-33.09 258.33-32.18 259.61-30.9 260.89-29.61 261.81-28.05 262.72-26.49 263.22-24.71 263.73-22.92 263.73-21L263.73-21Q263.73-19.19 263.27-17.48 262.82-15.77 261.98-14.23 261.14-12.7 259.92-11.4 258.7-10.11 257.18-9.16L257.18-9.16 261.06 0 253.62 0 250.57-7.06 242.73-7.01Z" opacity="1" transform="matrix(1,0,0,1,0,0)" fill="#2a2c35" class="wordmark-text-0" data-fill-palette-color="primary" id="text-0"></path></svg></g></svg></g></svg></g></svg></g></svg></g></svg></g></svg></g><path d="M178.844 100.639L178.844 37.213 6.07 37.213 6.07 209.987 178.844 209.987 178.844 146.561 175.785 146.561 175.785 206.928 9.129 206.928 9.129 40.272 175.785 40.272 175.785 100.639Z" fill="#2a2c35" stroke="transparent" data-fill-palette-color="tertiary"></path></svg></g><defs></defs></svg><rect width="395.52" height="247.2" fill="none" stroke="none" visibility="hidden"></rect></g></svg></g></svg>